<svg preserveAspectRatio="none" width="100%" height="100%" overflow="visible" style="display: block;" viewBox="0 0 243.591 151.074" fill="none" xmlns="http://www.w3.org/2000/svg">
<g id="Icon">
<path id="Vector" opacity="0.5" d="M232.349 122.967H11.2427C5.03352 122.967 0 128 0 134.209V139.831C0 146.04 5.03352 151.074 11.2427 151.074H232.349C238.558 151.074 243.591 146.04 243.591 139.831V134.209C243.591 128 238.558 122.967 232.349 122.967Z" fill="var(--fill-0, #92400E)"/>
<path id="Vector_2" d="M49.6552 76.1223H47.7814C46.2291 76.1223 44.9707 77.3807 44.9707 78.933V123.904C44.9707 125.456 46.2291 126.714 47.7814 126.714H49.6552C51.2075 126.714 52.4658 125.456 52.4658 123.904V78.933C52.4658 77.3807 51.2075 76.1223 49.6552 76.1223Z" fill="var(--fill-0, #92400E)"/>
<path id="Vector_3" opacity="0.9" d="M48.7183 91.1126C64.2412 91.1126 76.825 78.5288 76.825 63.0059C76.825 47.483 64.2412 34.8992 48.7183 34.8992C33.1954 34.8992 20.6116 47.483 20.6116 63.0059C20.6116 78.5288 33.1954 91.1126 48.7183 91.1126Z" fill="var(--fill-0, #F59E0B)"/>
<path id="Vector_4" opacity="0.8" d="M35.6018 87.365C45.9504 87.365 54.3396 78.9758 54.3396 68.6272C54.3396 58.2786 45.9504 49.8894 35.6018 49.8894C25.2532 49.8894 16.864 58.2786 16.864 68.6272C16.864 78.9758 25.2532 87.365 35.6018 87.365Z" fill="var(--fill-0, #FBBF24)"/>
<path id="Vector_5" opacity="0.75" d="M61.8347 87.365C73.2182 87.365 82.4463 78.1369 82.4463 66.7534C82.4463 55.37 73.2182 46.1418 61.8347 46.1418C50.4513 46.1418 41.2232 55.37 41.2232 66.7534C41.2232 78.1369 50.4513 87.365 61.8347 87.365Z" fill="var(--fill-0, #D97706)"/>
<path id="Vector_6" d="M183.63 94.8601H181.757C180.722 94.8601 179.883 95.699 179.883 96.7339V124.841C179.883 125.875 180.722 126.714 181.757 126.714H183.63C184.665 126.714 185.504 125.875 185.504 124.841V96.7339C185.504 95.699 184.665 94.8601 183.63 94.8601Z" fill="var(--fill-0, #92400E)"/>
<path id="Vector_7" opacity="0.85" d="M182.694 102.355C192.007 102.355 199.558 94.805 199.558 85.4912C199.558 76.1775 192.007 68.6272 182.694 68.6272C173.38 68.6272 165.83 76.1775 165.83 85.4912C165.83 94.805 173.38 102.355 182.694 102.355Z" fill="var(--fill-0, #F59E0B)"/>
<path id="Vector_8" opacity="0.7" d="M174.262 102.355C180.471 102.355 185.504 97.3217 185.504 91.1126C185.504 84.9034 180.471 79.8699 174.262 79.8699C168.052 79.8699 163.019 84.9034 163.019 91.1126C163.019 97.3217 168.052 102.355 174.262 102.355Z" fill="var(--fill-0, #FBBF24)"/>
<path id="Vector_9" opacity="0.9" d="M145.218 106.103H102.121C100.051 106.103 98.3735 107.781 98.3735 109.85C98.3735 111.92 100.051 113.598 102.121 113.598H145.218C147.288 113.598 148.966 111.92 148.966 109.85C148.966 107.781 147.288 106.103 145.218 106.103Z" fill="var(--fill-0, #FDE68A)"/>
<path id="Vector_10" opacity="0.7" d="M106.805 113.598H104.932C103.897 113.598 103.058 114.437 103.058 115.472V122.967C103.058 124.002 103.897 124.841 104.932 124.841H106.805C107.84 124.841 108.679 124.002 108.679 122.967V115.472C108.679 114.437 107.84 113.598 106.805 113.598Z" fill="var(--fill-0, #FDE68A)"/>
<path id="Vector_11" opacity="0.7" d="M141.47 113.598H139.597C138.562 113.598 137.723 114.437 137.723 115.472V122.967C137.723 124.002 138.562 124.841 139.597 124.841H141.47C142.505 124.841 143.344 124.002 143.344 122.967V115.472C143.344 114.437 142.505 113.598 141.47 113.598Z" fill="var(--fill-0, #FDE68A)"/>
<path id="Vector_12" opacity="0.6" d="M144.281 98.6077H103.058C101.506 98.6077 100.247 99.8661 100.247 101.418C100.247 102.971 101.506 104.229 103.058 104.229H144.281C145.833 104.229 147.092 102.971 147.092 101.418C147.092 99.8661 145.833 98.6077 144.281 98.6077Z" fill="var(--fill-0, #FDE68A)"/>
<path id="Vector_13" opacity="0.9" d="M201.431 44.2681C210.745 44.2681 218.295 36.7178 218.295 27.404C218.295 18.0903 210.745 10.54 201.431 10.54C192.118 10.54 184.567 18.0903 184.567 27.404C184.567 36.7178 192.118 44.2681 201.431 44.2681Z" fill="var(--fill-0, #FDE68A)"/>
<path id="Vector_14" opacity="0.7" d="M222.043 27.404H227.664" stroke="var(--stroke-0, #FDE68A)" stroke-width="2.34223" stroke-linecap="round"/>
<path id="Vector_15" opacity="0.7" d="M216.006 41.9787L219.981 45.9536" stroke="var(--stroke-0, #FDE68A)" stroke-width="2.34223" stroke-linecap="round"/>
<path id="Vector_16" opacity="0.7" d="M201.431 48.0156V53.637" stroke="var(--stroke-0, #FDE68A)" stroke-width="2.34223" stroke-linecap="round"/>
<path id="Vector_17" opacity="0.7" d="M186.857 41.9787L182.882 45.9536" stroke="var(--stroke-0, #FDE68A)" stroke-width="2.34223" stroke-linecap="round"/>
<path id="Vector_18" opacity="0.7" d="M180.82 27.404H175.198" stroke="var(--stroke-0, #FDE68A)" stroke-width="2.34223" stroke-linecap="round"/>
<path id="Vector_19" opacity="0.7" d="M186.857 12.8295L182.882 8.85459" stroke="var(--stroke-0, #FDE68A)" stroke-width="2.34223" stroke-linecap="round"/>
<path id="Vector_20" opacity="0.7" d="M201.431 6.79245V1.17111" stroke="var(--stroke-0, #FDE68A)" stroke-width="2.34223" stroke-linecap="round"/>
<path id="Vector_21" opacity="0.7" d="M216.006 12.8295L219.981 8.85459" stroke="var(--stroke-0, #FDE68A)" stroke-width="2.34223" stroke-linecap="round"/>
<path id="Vector_22" opacity="0.8" d="M184.567 92.9863H147.092C146.057 92.9863 145.218 93.8253 145.218 94.8601V95.797C145.218 96.8319 146.057 97.6708 147.092 97.6708H184.567C185.602 97.6708 186.441 96.8319 186.441 95.797V94.8601C186.441 93.8253 185.602 92.9863 184.567 92.9863Z" fill="var(--fill-0, #FDE68A)"/>
<path id="Vector_23" opacity="0.6" d="M148.966 97.6708H148.029C147.511 97.6708 147.092 98.0902 147.092 98.6077V119.219C147.092 119.737 147.511 120.156 148.029 120.156H148.966C149.483 120.156 149.902 119.737 149.902 119.219V98.6077C149.902 98.0902 149.483 97.6708 148.966 97.6708Z" fill="var(--fill-0, #FDE68A)"/>
<path id="Vector_24" opacity="0.6" d="M183.63 97.6708H182.694C182.176 97.6708 181.757 98.0902 181.757 98.6077V119.219C181.757 119.737 182.176 120.156 182.694 120.156H183.63C184.148 120.156 184.567 119.737 184.567 119.219V98.6077C184.567 98.0902 184.148 97.6708 183.63 97.6708Z" fill="var(--fill-0, #FDE68A)"/>
<path id="Vector_25" d="M123.669 105.166C128.326 105.166 132.101 101.391 132.101 96.7339C132.101 92.077 128.326 88.3019 123.669 88.3019C119.013 88.3019 115.237 92.077 115.237 96.7339C115.237 101.391 119.013 105.166 123.669 105.166Z" fill="var(--fill-0, #FDE68A)"/>
<path id="Vector_26" d="M127.417 106.103H120.859C118.789 106.103 117.111 107.781 117.111 109.85V111.724C117.111 113.794 118.789 115.472 120.859 115.472H127.417C129.487 115.472 131.165 113.794 131.165 111.724V109.85C131.165 107.781 129.487 106.103 127.417 106.103Z" fill="var(--fill-0, #F59E0B)"/>
<path id="Vector_27" opacity="0.1" d="M32.7912 44.2681C42.1049 44.2681 49.6552 36.7178 49.6552 27.404C49.6552 18.0903 42.1049 10.54 32.7912 10.54C23.4774 10.54 15.9271 18.0903 15.9271 27.404C15.9271 36.7178 23.4774 44.2681 32.7912 44.2681Z" fill="var(--fill-0, white)"/>
<path id="Vector_28" opacity="0.08" d="M224.854 117.345C232.098 117.345 237.97 111.473 237.97 104.229C237.97 96.985 232.098 91.1126 224.854 91.1126C217.61 91.1126 211.737 96.985 211.737 104.229C211.737 111.473 217.61 117.345 224.854 117.345Z" fill="var(--fill-0, white)"/>
</g>
</svg>
