<svg preserveAspectRatio="none" width="100%" height="100%" overflow="visible" style="display: block;" viewBox="0 0 243.591 149.902" fill="none" xmlns="http://www.w3.org/2000/svg">
<g id="Icon">
<path id="Vector" opacity="0.5" d="M232.349 121.796H11.2427C5.03356 121.796 3.68514e-05 126.829 3.68514e-05 133.038V138.66C3.68514e-05 144.869 5.03356 149.902 11.2427 149.902H232.349C238.558 149.902 243.591 144.869 243.591 138.66V133.038C243.591 126.829 238.558 121.796 232.349 121.796Z" fill="var(--fill-0, #094E5F)"/>
<path id="Vector_2" opacity="0.85" d="M28.1067 121.796H84.3201V98.3734L28.1067 121.796Z" fill="var(--fill-0, #46DFB1)"/>
<path id="Vector_3" opacity="0.7" d="M86.1939 95.5627C86.1939 94.5279 85.355 93.689 84.3201 93.689C83.2853 93.689 82.4464 94.5279 82.4464 95.5627V119.922C82.4464 120.957 83.2853 121.796 84.3201 121.796C85.355 121.796 86.1939 120.957 86.1939 119.922V95.5627Z" fill="var(--fill-0, #80EE98)"/>
<path id="Vector_4" opacity="0.7" d="M109.616 118.048H105.869C104.316 118.048 103.058 119.306 103.058 120.859C103.058 122.411 104.316 123.669 105.869 123.669H109.616C111.168 123.669 112.427 122.411 112.427 120.859C112.427 119.306 111.168 118.048 109.616 118.048Z" fill="var(--fill-0, #46DFB1)"/>
<path id="Vector_5" opacity="0.7" d="M124.606 118.048H120.859C119.307 118.048 118.048 119.306 118.048 120.859C118.048 122.411 119.307 123.669 120.859 123.669H124.606C126.159 123.669 127.417 122.411 127.417 120.859C127.417 119.306 126.159 118.048 124.606 118.048Z" fill="var(--fill-0, #46DFB1)"/>
<path id="Vector_6" opacity="0.7" d="M139.597 118.048H135.849C134.297 118.048 133.038 119.306 133.038 120.859C133.038 122.411 134.297 123.669 135.849 123.669H139.597C141.149 123.669 142.407 122.411 142.407 120.859C142.407 119.306 141.149 118.048 139.597 118.048Z" fill="var(--fill-0, #46DFB1)"/>
<path id="Vector_7" opacity="0.7" d="M154.587 118.048H150.839C149.287 118.048 148.029 119.306 148.029 120.859C148.029 122.411 149.287 123.669 150.839 123.669H154.587C156.139 123.669 157.398 122.411 157.398 120.859C157.398 119.306 156.139 118.048 154.587 118.048Z" fill="var(--fill-0, #46DFB1)"/>
<path id="Vector_8" opacity="0.7" d="M169.577 118.048H165.83C164.277 118.048 163.019 119.306 163.019 120.859C163.019 122.411 164.277 123.669 165.83 123.669H169.577C171.129 123.669 172.388 122.411 172.388 120.859C172.388 119.306 171.129 118.048 169.577 118.048Z" fill="var(--fill-0, #46DFB1)"/>
<path id="Vector_9" opacity="0.7" d="M184.567 118.048H180.82C179.268 118.048 178.009 119.306 178.009 120.859C178.009 122.411 179.268 123.669 180.82 123.669H184.567C186.12 123.669 187.378 122.411 187.378 120.859C187.378 119.306 186.12 118.048 184.567 118.048Z" fill="var(--fill-0, #46DFB1)"/>
<path id="Vector_10" d="M74.9512 88.0676C81.1604 88.0676 86.1939 83.0341 86.1939 76.8249C86.1939 70.6158 81.1604 65.5823 74.9512 65.5823C68.7421 65.5823 63.7086 70.6158 63.7086 76.8249C63.7086 83.0341 68.7421 88.0676 74.9512 88.0676Z" fill="var(--fill-0, #FBBF24)"/>
<path id="Vector_11" d="M67.4561 76.8249C67.4561 73.0774 71.2037 70.2667 74.9512 70.2667C78.6988 70.2667 82.4464 73.0774 82.4464 76.8249" fill="var(--fill-0, #1A1A2E)"/>
<path id="Vector_12" d="M82.4464 89.9414C82.4464 85.802 79.0907 82.4463 74.9512 82.4463C70.8118 82.4463 67.4561 85.802 67.4561 89.9414V93.689C67.4561 97.8284 70.8118 101.184 74.9512 101.184C79.0907 101.184 82.4464 97.8284 82.4464 93.689V89.9414Z" fill="var(--fill-0, #FBBF24)"/>
<path id="Vector_13" d="M63.7086 119.922C68.8829 119.922 73.0775 115.727 73.0775 110.553C73.0775 105.379 68.8829 101.184 63.7086 101.184C58.5343 101.184 54.3397 105.379 54.3397 110.553C54.3397 115.727 58.5343 119.922 63.7086 119.922Z" stroke="var(--stroke-0, #46DFB1)" stroke-width="2.81067"/>
<path id="Vector_14" d="M86.1939 119.922C91.3682 119.922 95.5628 115.727 95.5628 110.553C95.5628 105.379 91.3682 101.184 86.1939 101.184C81.0196 101.184 76.825 105.379 76.825 110.553C76.825 115.727 81.0196 119.922 86.1939 119.922Z" stroke="var(--stroke-0, #46DFB1)" stroke-width="2.81067"/>
<path id="Vector_15" d="M63.7086 101.184L74.9512 93.689L86.1939 101.184V110.553" stroke="var(--stroke-0, #46DFB1)" stroke-width="2.81067" stroke-linecap="round"/>
<g id="Vector_16">
<path d="M74.9512 93.689V82.4463Z" fill="var(--fill-0, black)"/>
<path d="M74.9512 93.689V82.4463" stroke="var(--stroke-0, #FBBF24)" stroke-width="2.81067" stroke-linecap="round"/>
</g>
<path id="Vector_17" opacity="0.15" d="M193.936 56.2134H177.072C169.828 56.2134 163.956 62.0858 163.956 69.3298V91.8152C163.956 99.0592 169.828 104.932 177.072 104.932H193.936C201.18 104.932 207.053 99.0592 207.053 91.8152V69.3298C207.053 62.0858 201.18 56.2134 193.936 56.2134Z" fill="var(--fill-0, white)"/>
<path id="Vector_18" d="M173.325 78.6987L179.883 86.1938L193.936 71.2036" stroke="var(--stroke-0, #46DFB1)" stroke-width="3.74756" stroke-linecap="round" stroke-linejoin="round"/>
<path id="Vector_19" opacity="0.3" d="M206.116 58.0871C217.499 58.0871 226.727 48.859 226.727 37.4756C226.727 26.0921 217.499 16.864 206.116 16.864C194.732 16.864 185.504 26.0921 185.504 37.4756C185.504 48.859 194.732 58.0871 206.116 58.0871Z" fill="var(--fill-0, #46DFB1)"/>
<path id="Vector_20" opacity="0.4" d="M196.747 42.16C203.474 42.16 208.927 36.707 208.927 29.9804C208.927 23.2538 203.474 17.8009 196.747 17.8009C190.02 17.8009 184.567 23.2538 184.567 29.9804C184.567 36.707 190.02 42.16 196.747 42.16Z" fill="var(--fill-0, #80EE98)"/>
<path id="Vector_21" opacity="0.1" d="M31.8543 61.8347C40.1332 61.8347 46.8445 55.1233 46.8445 46.8445C46.8445 38.5656 40.1332 31.8542 31.8543 31.8542C23.5754 31.8542 16.8641 38.5656 16.8641 46.8445C16.8641 55.1233 23.5754 61.8347 31.8543 61.8347Z" fill="var(--fill-0, white)"/>
<path id="Vector_22" opacity="0.25" d="M26.233 49.6551C30.8898 49.6551 34.665 45.88 34.665 41.2231C34.665 36.5662 30.8898 32.7911 26.233 32.7911C21.5761 32.7911 17.8009 36.5662 17.8009 41.2231C17.8009 45.88 21.5761 49.6551 26.233 49.6551Z" fill="var(--fill-0, #46DFB1)"/>
</g>
</svg>
