<svg preserveAspectRatio="none" width="100%" height="100%" overflow="visible" style="display: block;" viewBox="0 0 18.7378 18.7378" fill="none" xmlns="http://www.w3.org/2000/svg">
<g id="Icon">
<path id="Vector" d="M12.4918 3.90375C12.923 3.90375 13.2725 3.5542 13.2725 3.123C13.2725 2.69181 12.923 2.34226 12.4918 2.34226C12.0606 2.34226 11.711 2.69181 11.711 3.123C11.711 3.5542 12.0606 3.90375 12.4918 3.90375Z" stroke="var(--stroke-0, #00786F)" stroke-width="1.56148" stroke-linecap="round" stroke-linejoin="round"/>
<path id="Vector_2" d="M14.0532 14.8342L14.8339 9.36896L10.1495 10.1497" stroke="var(--stroke-0, #00786F)" stroke-width="1.56148" stroke-linecap="round" stroke-linejoin="round"/>
<path id="Vector_3" d="M3.90381 6.24591L6.24604 3.90368L10.5401 6.24591L8.69757 8.9785" stroke="var(--stroke-0, #00786F)" stroke-width="1.56148" stroke-linecap="round" stroke-linejoin="round"/>
<path id="Vector_4" d="M3.31026 11.3208C3.08996 12.0414 3.08297 12.8105 3.29012 13.535C3.49728 14.2596 3.90973 14.9087 4.47768 15.404C5.04563 15.8993 5.74481 16.2196 6.49081 16.3263C7.23681 16.433 7.99775 16.3215 8.68176 16.0052" stroke="var(--stroke-0, #00786F)" stroke-width="1.56148" stroke-linecap="round" stroke-linejoin="round"/>
<path id="Vector_5" d="M10.743 13.6629C10.9633 12.9422 10.9703 12.1732 10.7632 11.4486C10.556 10.7241 10.1436 10.075 9.5756 9.57967C9.00765 9.08436 8.30847 8.76403 7.56247 8.65735C6.81647 8.55067 6.05554 8.66219 5.37152 8.97846" stroke="var(--stroke-0, #00786F)" stroke-width="1.56148" stroke-linecap="round" stroke-linejoin="round"/>
</g>
</svg>
