<svg preserveAspectRatio="none" width="100%" height="100%" overflow="visible" style="display: block;" viewBox="0 0 18.7378 18.7378" fill="none" xmlns="http://www.w3.org/2000/svg">
<g id="Icon">
<path id="Vector" d="M15.6147 10.1495C15.6147 14.0532 12.8821 16.0051 9.63417 17.1372C9.4641 17.1948 9.27935 17.1921 9.11108 17.1294C5.85538 16.0051 3.12279 14.0532 3.12279 10.1495V4.68435C3.12279 4.47728 3.20504 4.2787 3.35146 4.13228C3.49788 3.98586 3.69646 3.90361 3.90353 3.90361C5.46501 3.90361 7.41687 2.96672 8.77536 1.77999C8.94076 1.63867 9.15117 1.56103 9.36872 1.56103C9.58627 1.56103 9.79668 1.63867 9.96208 1.77999C11.3284 2.97452 13.2724 3.90361 14.8339 3.90361C15.041 3.90361 15.2396 3.98586 15.386 4.13228C15.5324 4.2787 15.6147 4.47728 15.6147 4.68435V10.1495Z" stroke="var(--stroke-0, #155DFC)" stroke-width="1.56148" stroke-linecap="round" stroke-linejoin="round"/>
</g>
</svg>
