<svg preserveAspectRatio="none" width="100%" height="100%" overflow="visible" style="display: block;" viewBox="0 0 18.7378 18.7378" fill="none" xmlns="http://www.w3.org/2000/svg">
<g id="Icon">
<path id="Vector" d="M8.9982 1.79181C9.03241 1.72268 9.08527 1.66449 9.1508 1.62381C9.21633 1.58313 9.29192 1.56157 9.36905 1.56157C9.44618 1.56157 9.52178 1.58313 9.58731 1.62381C9.65284 1.66449 9.70569 1.72268 9.73991 1.79181L11.5434 5.4449C11.6622 5.68534 11.8376 5.89336 12.0545 6.05111C12.2714 6.20885 12.5233 6.31161 12.7887 6.35056L16.822 6.9408C16.8984 6.95187 16.9702 6.98411 17.0293 7.03386C17.0883 7.08362 17.1323 7.1489 17.1562 7.22234C17.1801 7.29578 17.1829 7.37443 17.1644 7.4494C17.1459 7.52438 17.1068 7.59268 17.0516 7.64659L14.1347 10.4869C13.9423 10.6744 13.7984 10.9058 13.7153 11.1612C13.6322 11.4166 13.6124 11.6884 13.6577 11.9532L14.3463 15.9662C14.3598 16.0426 14.3515 16.1212 14.3225 16.1931C14.2934 16.265 14.2447 16.3274 14.182 16.3729C14.1192 16.4185 14.0449 16.4455 13.9675 16.4509C13.8901 16.4563 13.8128 16.4398 13.7443 16.4034L10.1389 14.5077C9.9013 14.383 9.63699 14.3178 9.36866 14.3178C9.10034 14.3178 8.83603 14.383 8.59846 14.5077L4.99378 16.4034C4.92533 16.4396 4.84809 16.4559 4.77084 16.4504C4.69359 16.4449 4.61942 16.4179 4.55679 16.3723C4.49416 16.3268 4.44557 16.2646 4.41654 16.1928C4.38751 16.121 4.37922 16.0425 4.39261 15.9662L5.08044 11.9539C5.12587 11.6891 5.10619 11.4171 5.02308 11.1615C4.93998 10.9059 4.79594 10.6744 4.60341 10.4869L1.68655 7.64737C1.6308 7.59352 1.5913 7.5251 1.57254 7.4499C1.55378 7.3747 1.55651 7.29574 1.58044 7.22202C1.60436 7.14829 1.64851 7.08277 1.70785 7.03291C1.76719 6.98306 1.83935 6.95087 1.91609 6.94002L5.94862 6.35056C6.21428 6.31191 6.46656 6.20929 6.68376 6.05152C6.90096 5.89376 7.07656 5.68558 7.19547 5.4449L8.9982 1.79181Z" stroke="var(--stroke-0, #E17100)" stroke-width="1.56148" stroke-linecap="round" stroke-linejoin="round"/>
</g>
</svg>
