<svg preserveAspectRatio="none" width="100%" height="100%" overflow="visible" style="display: block;" viewBox="0 0 34 60.998" fill="none" xmlns="http://www.w3.org/2000/svg">
<g id="Group">
<path id="Vector" d="M17.5 24.9992H16.5C15.3954 24.9992 14.5 25.8946 14.5 26.9991V58.9981C14.5 60.1026 15.3954 60.998 16.5 60.998H17.5C18.6046 60.998 19.5 60.1026 19.5 58.9981V26.9991C19.5 25.8946 18.6046 24.9992 17.5 24.9992Z" fill="var(--fill-0, #094E5F)"/>
<path id="Vector_2" opacity="0.95" d="M17 33.9989C26.3888 33.9989 34 26.388 34 16.9994C34 7.61091 26.3888 0 17 0C7.61116 0 0 7.61091 0 16.9994C0 26.388 7.61116 33.9989 17 33.9989Z" fill="var(--fill-0, #094E5F)"/>
<path id="Vector_3" opacity="0.4" d="M16.9997 28.9991C23.6271 28.9991 28.9997 23.6267 28.9997 16.9995C28.9997 10.3723 23.6271 4.99985 16.9997 4.99985C10.3723 4.99985 4.99972 10.3723 4.99972 16.9995C4.99972 23.6267 10.3723 28.9991 16.9997 28.9991Z" fill="var(--fill-0, #46DFB1)"/>
</g>
</svg>
