<svg preserveAspectRatio="none" width="100%" height="100%" overflow="visible" style="display: block;" viewBox="0 0 20 43.9986" fill="none" xmlns="http://www.w3.org/2000/svg">
<g id="Group">
<path id="Vector" d="M11.9998 17.9994C11.9998 16.8949 11.1044 15.9995 9.9998 15.9995C8.89523 15.9995 7.9998 16.8949 7.9998 17.9994V41.9986C7.9998 43.1032 8.89523 43.9986 9.9998 43.9986C11.1044 43.9986 11.9998 43.1032 11.9998 41.9986V17.9994Z" fill="var(--fill-0, #094E5F)"/>
<path id="Vector_2" opacity="0.9" d="M10 19.9993C15.5228 19.9993 20 15.5223 20 9.99967C20 4.47701 15.5228 0 10 0C4.47715 0 0 4.47701 0 9.99967C0 15.5223 4.47715 19.9993 10 19.9993Z" fill="var(--fill-0, #0C6478)"/>
<path id="Vector_3" opacity="0.3" d="M10.0001 15.9995C13.3138 15.9995 16.0001 13.3133 16.0001 9.99967C16.0001 6.68607 13.3138 3.99986 10.0001 3.99986C6.68638 3.99986 4.00008 6.68607 4.00008 9.99967C4.00008 13.3133 6.68638 15.9995 10.0001 15.9995Z" fill="var(--fill-0, #46DFB1)"/>
</g>
</svg>
