<svg preserveAspectRatio="none" width="100%" height="100%" overflow="visible" style="display: block;" viewBox="0 0 34 60.998" fill="none" xmlns="http://www.w3.org/2000/svg">
<g id="Group">
<path id="Vector" d="M17.4999 24.9992H16.4999C15.3954 24.9992 14.4999 25.8946 14.4999 26.9991V58.9981C14.4999 60.1026 15.3954 60.998 16.4999 60.998H17.4999C18.6045 60.998 19.4999 60.1026 19.4999 58.9981V26.9991C19.4999 25.8946 18.6045 24.9992 17.4999 24.9992Z" fill="var(--fill-0, #094E5F)"/>
<path id="Vector_2" opacity="0.95" d="M17 33.9989C26.3888 33.9989 34 26.388 34 16.9994C34 7.61091 26.3888 0 17 0C7.61116 0 0 7.61091 0 16.9994C0 26.388 7.61116 33.9989 17 33.9989Z" fill="var(--fill-0, #094E5F)"/>
<path id="Vector_3" opacity="0.4" d="M17.0002 28.9991C23.6276 28.9991 29.0002 23.6267 29.0002 16.9995C29.0002 10.3723 23.6276 4.99985 17.0002 4.99985C10.3728 4.99985 5.00017 10.3723 5.00017 16.9995C5.00017 23.6267 10.3728 28.9991 17.0002 28.9991Z" fill="var(--fill-0, #46DFB1)"/>
</g>
</svg>
