<svg preserveAspectRatio="none" width="100%" height="100%" overflow="visible" style="display: block;" viewBox="0 0 20 43.9986" fill="none" xmlns="http://www.w3.org/2000/svg">
<g id="Group">
<path id="Vector" d="M11.9999 17.9994C11.9999 16.8949 11.1044 15.9995 9.99986 15.9995C8.89529 15.9995 7.99986 16.8949 7.99986 17.9994V41.9986C7.99986 43.1032 8.89529 43.9986 9.99986 43.9986C11.1044 43.9986 11.9999 43.1032 11.9999 41.9986V17.9994Z" fill="var(--fill-0, #094E5F)"/>
<path id="Vector_2" opacity="0.9" d="M10 19.9993C15.5228 19.9993 20 15.5223 20 9.99967C20 4.47701 15.5228 0 10 0C4.47715 0 0 4.47701 0 9.99967C0 15.5223 4.47715 19.9993 10 19.9993Z" fill="var(--fill-0, #0C6478)"/>
<path id="Vector_3" opacity="0.3" d="M9.99989 15.9995C13.3136 15.9995 15.9999 13.3133 15.9999 9.99968C15.9999 6.68608 13.3136 3.99988 9.99989 3.99988C6.68618 3.99988 3.99989 6.68608 3.99989 9.99968C3.99989 13.3133 6.68618 15.9995 9.99989 15.9995Z" fill="var(--fill-0, #46DFB1)"/>
</g>
</svg>
