<svg preserveAspectRatio="none" width="100%" height="100%" overflow="visible" style="display: block;" viewBox="0 0 28 57.9981" fill="none" xmlns="http://www.w3.org/2000/svg">
<g id="Group">
<path id="Vector" d="M14.5 21.9993H13.5C12.3954 21.9993 11.5 22.8947 11.5 23.9992V55.9982C11.5 57.1027 12.3954 57.9981 13.5 57.9981H14.5C15.6046 57.9981 16.5 57.1027 16.5 55.9982V23.9992C16.5 22.8947 15.6046 21.9993 14.5 21.9993Z" fill="var(--fill-0, #094E5F)"/>
<path id="Vector_2" opacity="0.95" d="M14 27.9991C21.732 27.9991 28 21.7313 28 13.9995C28 6.26781 21.732 0 14 0C6.26801 0 0 6.26781 0 13.9995C0 21.7313 6.26801 27.9991 14 27.9991Z" fill="var(--fill-0, #094E5F)"/>
<path id="Vector_3" opacity="0.4" d="M14 22.9993C18.9706 22.9993 23 18.9699 23 13.9995C23 9.02915 18.9706 4.99984 14 4.99984C9.02945 4.99984 5.00001 9.02915 5.00001 13.9995C5.00001 18.9699 9.02945 22.9993 14 22.9993Z" fill="var(--fill-0, #46DFB1)"/>
</g>
</svg>
