<svg preserveAspectRatio="none" width="100%" height="100%" overflow="visible" style="display: block;" viewBox="0 0 28 57.9981" fill="none" xmlns="http://www.w3.org/2000/svg">
<g id="Group">
<path id="Vector" d="M14.4998 21.9993H13.4998C12.3952 21.9993 11.4998 22.8947 11.4998 23.9993V55.9982C11.4998 57.1027 12.3952 57.9981 13.4998 57.9981H14.4998C15.6043 57.9981 16.4998 57.1027 16.4998 55.9982V23.9993C16.4998 22.8947 15.6043 21.9993 14.4998 21.9993Z" fill="var(--fill-0, #094E5F)"/>
<path id="Vector_2" opacity="0.95" d="M14 27.9991C21.732 27.9991 28 21.7313 28 13.9995C28 6.26781 21.732 0 14 0C6.26801 0 0 6.26781 0 13.9995C0 21.7313 6.26801 27.9991 14 27.9991Z" fill="var(--fill-0, #094E5F)"/>
<path id="Vector_3" opacity="0.4" d="M13.9999 22.9993C18.9705 22.9993 22.9999 18.97 22.9999 13.9996C22.9999 9.02916 18.9705 4.99985 13.9999 4.99985C9.02935 4.99985 4.99992 9.02916 4.99992 13.9996C4.99992 18.97 9.02935 22.9993 13.9999 22.9993Z" fill="var(--fill-0, #46DFB1)"/>
</g>
</svg>
