<svg preserveAspectRatio="none" width="100%" height="100%" overflow="visible" style="display: block;" viewBox="0 0 20 43.9986" fill="none" xmlns="http://www.w3.org/2000/svg">
<g id="Group">
<path id="Vector" d="M12.0002 17.9994C12.0002 16.8949 11.1047 15.9995 10.0002 15.9995C8.89559 15.9995 8.00016 16.8949 8.00016 17.9994V41.9987C8.00016 43.1032 8.89559 43.9986 10.0002 43.9986C11.1047 43.9986 12.0002 43.1032 12.0002 41.9987V17.9994Z" fill="var(--fill-0, #094E5F)"/>
<path id="Vector_2" opacity="0.9" d="M10 19.9993C15.5228 19.9993 20 15.5223 20 9.99967C20 4.47701 15.5228 0 10 0C4.47715 0 0 4.47701 0 9.99967C0 15.5223 4.47715 19.9993 10 19.9993Z" fill="var(--fill-0, #0C6478)"/>
<path id="Vector_3" opacity="0.3" d="M10.0002 15.9995C13.3139 15.9995 16.0002 13.3133 16.0002 9.9997C16.0002 6.6861 13.3139 3.9999 10.0002 3.9999C6.68648 3.9999 4.00019 6.6861 4.00019 9.9997C4.00019 13.3133 6.68648 15.9995 10.0002 15.9995Z" fill="var(--fill-0, #46DFB1)"/>
</g>
</svg>
