<svg preserveAspectRatio="none" width="100%" height="100%" overflow="visible" style="display: block;" viewBox="0 0 24 45.9985" fill="none" xmlns="http://www.w3.org/2000/svg">
<g id="Group">
<path id="Vector" d="M14 19.9994C14 18.8948 13.1046 17.9994 12 17.9994C10.8955 17.9994 10 18.8948 10 19.9994V43.9986C10 45.1031 10.8955 45.9985 12 45.9985C13.1046 45.9985 14 45.1031 14 43.9986V19.9994Z" fill="var(--fill-0, #094E5F)"/>
<path id="Vector_2" opacity="0.9" d="M12 23.9992C18.6274 23.9992 24 18.6268 24 11.9996C24 5.37241 18.6274 0 12 0C5.37258 0 0 5.37241 0 11.9996C0 18.6268 5.37258 23.9992 12 23.9992Z" fill="var(--fill-0, #0C6478)"/>
<path id="Vector_3" opacity="0.3" d="M12.0002 19.9994C16.4185 19.9994 20.0002 16.4177 20.0002 11.9996C20.0002 7.58148 16.4185 3.99987 12.0002 3.99987C7.58192 3.99987 4.0002 7.58148 4.0002 11.9996C4.0002 16.4177 7.58192 19.9994 12.0002 19.9994Z" fill="var(--fill-0, #46DFB1)"/>
</g>
</svg>
