<svg preserveAspectRatio="none" width="100%" height="100%" overflow="visible" style="display: block;" viewBox="0 0 34 60.998" fill="none" xmlns="http://www.w3.org/2000/svg">
<g id="Group">
<path id="Vector" d="M17.5001 24.9992H16.5001C15.3955 24.9992 14.5001 25.8946 14.5001 26.9991V58.9981C14.5001 60.1026 15.3955 60.998 16.5001 60.998H17.5001C18.6047 60.998 19.5001 60.1026 19.5001 58.9981V26.9991C19.5001 25.8946 18.6047 24.9992 17.5001 24.9992Z" fill="var(--fill-0, #094E5F)"/>
<path id="Vector_2" opacity="0.95" d="M17 33.9989C26.3888 33.9989 34 26.388 34 16.9994C34 7.61091 26.3888 0 17 0C7.61116 0 0 7.61091 0 16.9994C0 26.388 7.61116 33.9989 17 33.9989Z" fill="var(--fill-0, #094E5F)"/>
<path id="Vector_3" opacity="0.4" d="M17.0003 28.9991C23.6278 28.9991 29.0003 23.6266 29.0003 16.9994C29.0003 10.3722 23.6278 4.99984 17.0003 4.99984C10.3729 4.99984 5.00034 10.3722 5.00034 16.9994C5.00034 23.6266 10.3729 28.9991 17.0003 28.9991Z" fill="var(--fill-0, #46DFB1)"/>
</g>
</svg>
