<svg preserveAspectRatio="none" width="100%" height="100%" overflow="visible" style="display: block;" viewBox="0 0 24 45.9985" fill="none" xmlns="http://www.w3.org/2000/svg">
<g id="Group">
<path id="Vector" d="M14.0002 19.9994C14.0002 18.8948 13.1047 17.9994 12.0002 17.9994C10.8956 17.9994 10.0002 18.8948 10.0002 19.9994V43.9986C10.0002 45.1031 10.8956 45.9985 12.0002 45.9985C13.1047 45.9985 14.0002 45.1031 14.0002 43.9986V19.9994Z" fill="var(--fill-0, #094E5F)"/>
<path id="Vector_2" opacity="0.9" d="M12 23.9992C18.6274 23.9992 24 18.6268 24 11.9996C24 5.37241 18.6274 0 12 0C5.37258 0 0 5.37241 0 11.9996C0 18.6268 5.37258 23.9992 12 23.9992Z" fill="var(--fill-0, #0C6478)"/>
<path id="Vector_3" opacity="0.3" d="M12.0001 19.9994C16.4184 19.9994 20.0001 16.4178 20.0001 11.9996C20.0001 7.5815 16.4184 3.9999 12.0001 3.9999C7.58181 3.9999 4.00008 7.5815 4.00008 11.9996C4.00008 16.4178 7.58181 19.9994 12.0001 19.9994Z" fill="var(--fill-0, #46DFB1)"/>
</g>
</svg>
