<svg preserveAspectRatio="none" width="100%" height="100%" overflow="visible" style="display: block;" viewBox="0 0 28 57.9981" fill="none" xmlns="http://www.w3.org/2000/svg">
<g id="Group">
<path id="Vector" d="M14.4999 21.9993H13.4999C12.3953 21.9993 11.4999 22.8947 11.4999 23.9992V55.9982C11.4999 57.1027 12.3953 57.9981 13.4999 57.9981H14.4999C15.6044 57.9981 16.4999 57.1027 16.4999 55.9982V23.9992C16.4999 22.8947 15.6044 21.9993 14.4999 21.9993Z" fill="var(--fill-0, #094E5F)"/>
<path id="Vector_2" opacity="0.95" d="M14 27.9991C21.732 27.9991 28 21.7313 28 13.9995C28 6.26781 21.732 0 14 0C6.26801 0 0 6.26781 0 13.9995C0 21.7313 6.26801 27.9991 14 27.9991Z" fill="var(--fill-0, #094E5F)"/>
<path id="Vector_3" opacity="0.4" d="M14 22.9993C18.9706 22.9993 23 18.97 23 13.9996C23 9.02917 18.9706 4.99986 14 4.99986C9.02944 4.99986 5 9.02917 5 13.9996C5 18.97 9.02944 22.9993 14 22.9993Z" fill="var(--fill-0, #46DFB1)"/>
</g>
</svg>
