<svg preserveAspectRatio="none" width="100%" height="100%" overflow="visible" style="display: block;" viewBox="0 0 28 57.9981" fill="none" xmlns="http://www.w3.org/2000/svg">
<g id="Group">
<path id="Vector" d="M14.5002 21.9993H13.5002C12.3956 21.9993 11.5002 22.8947 11.5002 23.9992V55.9982C11.5002 57.1027 12.3956 57.9981 13.5002 57.9981H14.5002C15.6048 57.9981 16.5002 57.1027 16.5002 55.9982V23.9992C16.5002 22.8947 15.6048 21.9993 14.5002 21.9993Z" fill="var(--fill-0, #094E5F)"/>
<path id="Vector_2" opacity="0.95" d="M14 27.9991C21.732 27.9991 28 21.7313 28 13.9995C28 6.26781 21.732 0 14 0C6.26801 0 0 6.26781 0 13.9995C0 21.7313 6.26801 27.9991 14 27.9991Z" fill="var(--fill-0, #094E5F)"/>
<path id="Vector_3" opacity="0.4" d="M14.0004 22.9993C18.9709 22.9993 23.0004 18.9699 23.0004 13.9995C23.0004 9.02915 18.9709 4.99984 14.0004 4.99984C9.02979 4.99984 5.00036 9.02915 5.00036 13.9995C5.00036 18.9699 9.02979 22.9993 14.0004 22.9993Z" fill="var(--fill-0, #46DFB1)"/>
</g>
</svg>
