<svg preserveAspectRatio="none" width="100%" height="100%" overflow="visible" style="display: block;" viewBox="0 0 17.3494 16.6187" fill="none" xmlns="http://www.w3.org/2000/svg">
<g id="Group 73">
<path id="LinkedIn" d="M0 1.93046C0 1.3709 0.195382 0.909263 0.586128 0.545565C0.976875 0.181849 1.48486 0 2.11006 0C2.72411 0 3.22091 0.179046 3.6005 0.537171C3.99125 0.906477 4.18663 1.38768 4.18663 1.98082C4.18663 2.51799 3.99684 2.96562 3.61725 3.32375C3.2265 3.69305 2.71294 3.87771 2.07657 3.87771H2.05982C1.44578 3.87771 0.948975 3.69305 0.569382 3.32375C0.189788 2.95444 0 2.49001 0 1.93046ZM0.217705 16.6187V5.40529H3.93543V16.6187H0.217705ZM5.99526 16.6187H9.71298V10.3573C9.71298 9.96564 9.75765 9.66348 9.84696 9.45086C10.0033 9.07036 10.2405 8.74861 10.5587 8.48563C10.8769 8.22263 11.276 8.09114 11.7561 8.09114C13.0065 8.09114 13.6317 8.93606 13.6317 10.6259V16.6187H17.3494V10.1895C17.3494 8.53319 16.9587 7.27699 16.1771 6.42088C15.3956 5.56476 14.3629 5.1367 13.079 5.1367C11.6388 5.1367 10.5168 5.75781 9.71298 7.00001V7.03359H9.69624L9.71298 7.00001V5.40529H5.99526C6.01758 5.7634 6.02875 6.8769 6.02875 8.74582C6.02875 10.6147 6.01758 13.239 5.99526 16.6187Z" fill="var(--fill-0, white)"/>
</g>
</svg>
