<svg preserveAspectRatio="none" width="100%" height="100%" overflow="visible" style="display: block;" viewBox="0 0 18.3133 14.5414" fill="none" xmlns="http://www.w3.org/2000/svg">
<g id="Social Media Icon Square/Twitter">
<path id="Twitter" d="M12.4113 0.0931029V0.0899603H13.2248L13.522 0.149669C13.7202 0.188433 13.9001 0.239233 14.0618 0.302084C14.2234 0.364935 14.3799 0.438267 14.5311 0.522064C14.6823 0.605861 14.8195 0.691245 14.9425 0.778184C15.0646 0.864086 15.1741 0.955221 15.2711 1.05159C15.367 1.14901 15.5167 1.17415 15.72 1.12701C15.9234 1.07987 16.1424 1.0144 16.3771 0.930599C16.6118 0.846802 16.8438 0.752525 17.0733 0.647767C17.3027 0.543009 17.4425 0.476497 17.4925 0.448214C17.5415 0.418893 17.5676 0.403181 17.5708 0.401075L17.5739 0.396361L17.5895 0.388505L17.6052 0.380648L17.6208 0.372792L17.6364 0.364935L17.6396 0.360222L17.6443 0.357079L17.649 0.353936L17.6521 0.349223L17.6677 0.344509L17.6834 0.341366L17.6803 0.364935L17.6756 0.388505L17.6677 0.412074L17.6599 0.435643L17.6521 0.451356L17.6443 0.467069L17.6364 0.490638C17.6312 0.506351 17.626 0.527296 17.6208 0.55349C17.6156 0.579683 17.566 0.684425 17.4722 0.867747C17.3783 1.05107 17.261 1.237 17.1202 1.42555C16.9794 1.61411 16.8532 1.75656 16.7416 1.85294C16.629 1.95036 16.5544 2.01845 16.5179 2.05721C16.4814 2.09701 16.4371 2.13367 16.3849 2.1672L16.3067 2.21905L16.291 2.22691L16.2754 2.23477L16.2723 2.23948L16.2676 2.24262L16.2629 2.24577L16.2598 2.25048L16.2441 2.25834L16.2285 2.26619L16.2254 2.27091L16.2206 2.27405L16.216 2.27719L16.2128 2.28191L16.2097 2.28662L16.205 2.28976L16.2003 2.2929L16.1972 2.29762H16.2754L16.7134 2.20334C17.0055 2.14049 17.2845 2.06455 17.5504 1.9755L17.9728 1.83409L18.0197 1.81838L18.0432 1.81052L18.0588 1.80266L18.0745 1.79481L18.0901 1.78695L18.1058 1.77909L18.1371 1.77438L18.1683 1.77124V1.80266L18.1605 1.80581L18.1527 1.81052L18.1496 1.81523L18.1449 1.81838L18.1402 1.82152L18.1371 1.82623L18.1339 1.83095L18.1292 1.83409L18.1245 1.83723L18.1214 1.84194L18.1183 1.84666L18.1136 1.8498L18.1058 1.86551L18.0979 1.88123L18.0933 1.88437C18.0912 1.88751 18.025 1.97654 17.8946 2.15149C17.7642 2.32747 17.6938 2.4165 17.6834 2.41861C17.673 2.42175 17.6583 2.43746 17.6396 2.46575C17.6218 2.49507 17.5113 2.61188 17.3079 2.81614C17.1045 3.02041 16.9054 3.20214 16.7103 3.36138C16.5143 3.52165 16.4152 3.71858 16.4131 3.95218C16.41 4.18473 16.398 4.44767 16.3771 4.74097C16.3562 5.03428 16.3171 5.35115 16.2598 5.6916C16.2024 6.03205 16.1138 6.41701 15.9938 6.84649C15.8739 7.27597 15.7279 7.69499 15.5558 8.10352C15.3837 8.51206 15.2038 8.87869 15.016 9.20342C14.8283 9.52816 14.6562 9.80314 14.4998 10.0283C14.3433 10.2536 14.1843 10.4657 14.0226 10.6647C13.861 10.8638 13.6566 11.0879 13.4094 11.3372C13.1612 11.5855 13.0256 11.7217 13.0027 11.7458C12.9787 11.7688 12.8765 11.8547 12.696 12.0035C12.5166 12.1532 12.3237 12.303 12.1172 12.4528C11.9117 12.6016 11.7229 12.7257 11.5509 12.8252C11.3788 12.9247 11.1712 13.0384 10.9282 13.1662C10.6863 13.2951 10.4245 13.4145 10.1429 13.5245C9.86129 13.6345 9.56405 13.7366 9.25117 13.8309C8.93828 13.9251 8.63583 13.9985 8.3438 14.0508C8.05179 14.1032 7.72065 14.1477 7.3504 14.1844L6.79503 14.2394V14.2473H5.77816V14.2394L5.64518 14.2315C5.55654 14.2263 5.48353 14.2211 5.42616 14.2158C5.36881 14.2106 5.15239 14.1818 4.77693 14.1294C4.40147 14.077 4.10684 14.0246 3.89303 13.9723C3.67924 13.9199 3.36113 13.8204 2.93874 13.6737C2.51635 13.5271 2.15496 13.3789 1.8546 13.2291C1.55528 13.0803 1.36755 12.986 1.29141 12.9462C1.21631 12.9075 1.13183 12.8593 1.03797 12.8017L0.897172 12.7152L0.894059 12.7105L0.88935 12.7074L0.884657 12.7042L0.881528 12.6995L0.865884 12.6917L0.85024 12.6838L0.847126 12.6791L0.842418 12.676L0.837724 12.6728L0.834595 12.6681L0.831482 12.6634L0.826773 12.6603H0.818951V12.6288L0.834595 12.632L0.85024 12.6367L0.920638 12.6445C0.967571 12.6498 1.09534 12.6576 1.30392 12.6681C1.51252 12.6786 1.73414 12.6786 1.9688 12.6681C2.20346 12.6576 2.44335 12.6341 2.68843 12.5974C2.93353 12.5607 3.22295 12.4979 3.55668 12.4088C3.89044 12.3198 4.19706 12.214 4.47658 12.0914C4.75504 11.9679 4.95319 11.8757 5.07106 11.8149C5.18785 11.7552 5.3662 11.6441 5.60607 11.4818L5.96589 11.2382L5.96902 11.2335L5.97371 11.2304L5.97842 11.2272L5.98153 11.2225L5.98466 11.2178L5.98935 11.2147L5.99406 11.2115L5.99718 11.2068L6.01282 11.2021L6.02846 11.199L6.03159 11.1832L6.03629 11.1675L6.04099 11.1644L6.04411 11.1597L5.91895 11.1518C5.83552 11.1466 5.75469 11.1413 5.67647 11.1361C5.59825 11.1309 5.47571 11.1073 5.30883 11.0654C5.14197 11.0235 4.96206 10.9606 4.76911 10.8768C4.57617 10.793 4.38844 10.6935 4.20592 10.5783C4.02341 10.4631 3.89147 10.3672 3.81012 10.2908C3.72982 10.2153 3.62552 10.1085 3.49724 9.97021C3.37 9.8309 3.25944 9.6879 3.16558 9.54125C3.07171 9.3946 2.98203 9.22541 2.89651 9.03372L2.76665 8.74775L2.75883 8.72418L2.75101 8.70061L2.74631 8.6849L2.74319 8.66919L2.76665 8.67233L2.79012 8.67704L2.9622 8.70061C3.07694 8.71632 3.25685 8.72156 3.50193 8.71632C3.74703 8.71109 3.9165 8.70061 4.01036 8.6849C4.10423 8.66919 4.1616 8.6587 4.18245 8.65347L4.21374 8.64562L4.25285 8.63776L4.29196 8.6299L4.29509 8.62519L4.29978 8.62205L4.30449 8.6189L4.3076 8.61419L4.27632 8.60633L4.24503 8.59848L4.21374 8.59062L4.18245 8.58276L4.15116 8.57491C4.13031 8.56968 4.09381 8.5592 4.04165 8.54348C3.98951 8.52777 3.84871 8.47015 3.61926 8.37064C3.38982 8.27113 3.2073 8.17423 3.07171 8.07995C2.93579 7.9854 2.80619 7.882 2.68374 7.77041C2.56171 7.65728 2.42771 7.51167 2.28168 7.33359C2.13568 7.15552 2.00531 6.94863 1.89058 6.71293C1.77586 6.47724 1.68982 6.25203 1.63245 6.03728C1.57531 5.8238 1.53762 5.60554 1.51983 5.3852L1.49165 5.05523L1.5073 5.05837L1.52294 5.06308L1.53858 5.07094L1.55423 5.0788L1.56987 5.08665L1.58552 5.09451L1.828 5.2045C1.98967 5.27783 2.19043 5.34068 2.4303 5.39305C2.67019 5.44542 2.81358 5.47424 2.86052 5.47947L2.93092 5.48733H3.07171L3.0686 5.48262L3.06389 5.47947L3.0592 5.47633L3.05607 5.47162L3.05296 5.4669L3.04825 5.46376L3.04355 5.46062L3.04043 5.4559L3.02478 5.44805L3.00914 5.44019L3.00602 5.43548L3.00131 5.43233L2.99662 5.42919L2.99349 5.42448L2.97785 5.41662L2.9622 5.40877L2.95909 5.40405C2.95596 5.40195 2.91111 5.36843 2.82454 5.30349C2.73901 5.2375 2.64932 5.15213 2.55546 5.04737C2.46159 4.94261 2.36773 4.83262 2.27386 4.7174C2.17982 4.60191 2.09606 4.47835 2.02355 4.34815C1.95056 4.21721 1.87337 4.05064 1.79202 3.84848C1.71172 3.64735 1.65071 3.44466 1.60898 3.24039C1.56728 3.03612 1.54381 2.83448 1.53858 2.63544C1.53337 2.43641 1.53858 2.26619 1.55423 2.12478C1.56987 1.98336 1.60116 1.82361 1.64809 1.64553C1.69503 1.46746 1.76283 1.27891 1.85147 1.07987L1.98444 0.781326L1.99226 0.757757L2.00009 0.734188L2.0048 0.731045L2.00791 0.726331L2.01104 0.721618L2.01573 0.718475L2.02044 0.721618L2.02355 0.726331L2.02668 0.731045L2.03138 0.734188L2.03608 0.73733L2.0392 0.742044L2.04233 0.746758L2.04702 0.749901L2.05484 0.765614L2.06266 0.781326L2.06737 0.784469L2.07049 0.789183L2.28168 1.02488C2.42248 1.182 2.58936 1.35747 2.7823 1.55126C2.97525 1.74504 3.08215 1.84561 3.103 1.85294C3.12387 1.86132 3.14993 1.88541 3.18122 1.92522C3.21251 1.96399 3.31681 2.05669 3.49411 2.20334C3.67142 2.34999 3.90347 2.52022 4.19027 2.71401C4.47709 2.9078 4.79519 3.09897 5.14457 3.28753C5.49396 3.47608 5.86942 3.6463 6.27095 3.7982C6.67249 3.95009 6.95408 4.0496 7.11573 4.09674C7.2774 4.14388 7.55377 4.20411 7.94488 4.27744C8.33598 4.35077 8.63062 4.39791 8.82877 4.41886C9.02694 4.4398 9.16253 4.45185 9.23552 4.45499L9.34503 4.45814L9.34192 4.43457L9.33721 4.411L9.30592 4.21459C9.28507 4.08365 9.27463 3.90033 9.27463 3.66464C9.27463 3.42894 9.29289 3.21159 9.32939 3.01255C9.3659 2.81352 9.42065 2.61188 9.49365 2.40761C9.56666 2.20334 9.63811 2.03939 9.70798 1.9158C9.77891 1.79323 9.87172 1.65339 9.98644 1.49626C10.1012 1.33913 10.2498 1.17677 10.4323 1.00916C10.6148 0.841554 10.8234 0.692282 11.0581 0.561346C11.2927 0.430411 11.5092 0.330886 11.7073 0.262802C11.9055 0.194718 12.0723 0.150188 12.2079 0.129242C12.3435 0.108297 12.4113 0.0962454 12.4113 0.0931029V0.0931029Z" fill="var(--fill-0, white)"/>
</g>
</svg>
