<svg preserveAspectRatio="none" width="100%" height="100%" overflow="visible" style="display: block;" viewBox="0 0 19.0843 13.5686" fill="none" xmlns="http://www.w3.org/2000/svg">
<g id="Group 73">
<path id="YouTube" d="M9.96497 13.5509L6.0496 13.4773C4.7819 13.4516 3.51103 13.5028 2.26818 13.2371C0.377515 12.8401 0.243574 10.8936 0.103418 9.26085C-0.089702 6.9654 -0.0149395 4.62829 0.349503 2.352C0.555243 1.07477 1.36491 0.31263 2.61704 0.229695C6.84388 -0.071288 11.0988 -0.0356184 15.3163 0.104801C15.7617 0.117673 16.2102 0.18803 16.6494 0.268116C18.8174 0.658715 18.8703 2.86455 19.0108 4.72144C19.151 6.5975 19.0918 8.48319 18.8239 10.3465C18.609 11.8892 18.1978 13.183 16.4625 13.3079C14.2883 13.4712 12.164 13.6026 9.98361 13.5608C9.98371 13.5509 9.97119 13.5509 9.96497 13.5509ZM7.66311 9.64506C9.30157 8.67814 10.9088 7.72734 12.5379 6.76691C10.8963 5.79999 9.2922 4.84918 7.66311 3.88875V9.64506Z" fill="var(--fill-0, white)"/>
</g>
</svg>
