<svg preserveAspectRatio="none" width="100%" height="100%" overflow="visible" style="display: block;" viewBox="0 0 18.3133 18.4191" fill="none" xmlns="http://www.w3.org/2000/svg">
<g id="Social Media Icon Square/Instagram">
<path id="Instagram" d="M9.49389 0.382926C12.9586 0.382926 14.6913 0.382787 15.9392 1.213C16.4965 1.58386 16.9738 2.06463 17.3425 2.62511C18.1682 3.88023 18.1687 5.62258 18.1687 9.10754C18.1687 12.5928 18.1683 14.3358 17.3425 15.5909C16.9738 16.1513 16.4964 16.6313 15.9392 17.0021C14.6913 17.8324 12.9588 17.8321 9.49389 17.8321C6.0287 17.8321 4.29554 17.8326 3.0476 17.0021C2.49059 16.6313 2.01388 16.1512 1.64526 15.5909C0.819533 14.3358 0.819088 12.5928 0.819088 9.10754C0.819088 5.62249 0.819572 3.88024 1.64526 2.62511C2.01396 2.06467 2.49039 1.58385 3.0476 1.213C4.29554 0.382504 6.0287 0.382926 9.49389 0.382926ZM9.49389 4.59093C7.01358 4.59093 5.00268 6.61387 5.00268 9.10851C5.0029 11.603 7.01372 13.6251 9.49389 13.6251C11.974 13.6251 13.9849 11.603 13.9851 9.10851C13.9851 6.61388 11.9742 4.59096 9.49389 4.59093ZM9.49389 6.11925C11.135 6.11928 12.4656 7.45789 12.4656 9.10851C12.4654 10.7589 11.1349 12.0968 9.49389 12.0968C7.85287 12.0968 6.52243 10.759 6.52221 9.10851C6.52221 7.45787 7.85274 6.11925 9.49389 6.11925ZM14.1619 3.30285C13.5792 3.30297 13.1072 3.7783 13.1072 4.36437C13.1072 4.95046 13.5792 5.42577 14.1619 5.42589C14.7447 5.42589 15.2175 4.95054 15.2175 4.36437C15.2175 3.77822 14.7446 3.30285 14.1619 3.30285Z" fill="var(--fill-0, white)"/>
</g>
</svg>
